<svg id="Layer_1" data-name="Layer 1" xmlns="http://www.w3.org/2000/svg" viewBox="0 0 1470.03 1470.03"><defs><style>.cls-1{fill:#40b182;}</style></defs><title>Artboard 1</title><path class="cls-1" d="M1470,235.58a234.07,234.07,0,0,1-69,166.59,40.81,40.81,0,1,1-57.71-57.71,153.91,153.91,0,0,0,0-217.73s0,0,0,0a154,154,0,0,0-217.71,0l-809.1,809.1a40.8,40.8,0,0,1-57.71-57.7L1067.87,69a235.53,235.53,0,0,1,333.06-.08.16.16,0,0,0,.08.07A234.06,234.06,0,0,1,1470,235.58ZM1323.56,462.73a40.87,40.87,0,0,1-11.95,28.86L496.21,1307a40.32,40.32,0,0,1-15.23,9.6L54.44,1467.66A40.18,40.18,0,0,1,40.82,1470a40.81,40.81,0,0,1-38.49-54.45L153.46,989a40.8,40.8,0,0,1,67.44-15.08l108.28,109.24L1087.32,325l-28.53-28.53a40.8,40.8,0,0,1,57.7-57.7L1311.6,433.87A40.82,40.82,0,0,1,1323.56,462.73Zm-98.52,0-80-80L386.61,1141.13l19,19.16a40.8,40.8,0,0,1-58,57.44l-47-47.46a5.31,5.31,0,0,1-.47-.38c-.16-.16-.26-.34-.41-.51l-91-91.84L107.84,1362.17,445,1242.73Z"/></svg>