<svg id="Layer_1" data-name="Layer 1" xmlns="http://www.w3.org/2000/svg" viewBox="0 0 1470.03 1470.03"><defs><style>.cls-1{fill:#40b182;}</style></defs><title>Artboard 1</title><path class="cls-1" d="M735,0C329.24,0,0,329.24,0,735s329.24,735,735,735,735-329.24,735-735S1140.78,0,735,0Zm0,1366.8c-348.82,0-631.79-283-631.79-631.79S386.19,103.22,735,103.22,1366.8,386.19,1366.8,735,1083.83,1366.8,735,1366.8Z"/><path class="cls-1" d="M968.15,907.64l-215.34-162V391.53a51.61,51.61,0,0,0-103.22,0V770.61c0,16,7.12,32,21.36,40.93l236.7,178a48.33,48.33,0,0,0,30.25,10.68c16,0,30.25-7.12,40.93-21.36C994.85,957.47,991.29,923.66,968.15,907.64Z"/><circle class="cls-1" cx="735.01" cy="195.77" r="37.37"/><circle class="cls-1" cx="735.01" cy="1274.26" r="37.37"/><circle class="cls-1" cx="1274.26" cy="735.01" r="37.37"/><circle class="cls-1" cx="195.77" cy="735.01" r="37.37"/></svg>