<svg id="Layer_1" data-name="Layer 1" xmlns="http://www.w3.org/2000/svg" viewBox="0 0 1470.03 1470.03"><defs><style>.cls-1{fill:#40b182;}</style></defs><title>Artboard 1</title><path class="cls-1" d="M1145.21,1408.91H634.14c-58.56,0-108-52-108-113.65V910.84a40.78,40.78,0,0,1,40.79-40.79H903.11a40.78,40.78,0,0,1,40.79,40.79v347.45a40.79,40.79,0,0,1-81.58,0V951.63H607.69v343.63c0,14.83,11.55,32.08,26.46,32.08h511.06a120.73,120.73,0,0,0,120.6-120.6V749.47a40.79,40.79,0,1,1,81.58,0v457.27C1347.37,1318.22,1256.69,1408.91,1145.21,1408.91Zm312.86-650.78a40.76,40.76,0,0,0,0-57.67L878,120.35a202.14,202.14,0,0,0-286.19.24L347.8,369A40.8,40.8,0,0,0,406,426.18L649.75,178a120.57,120.57,0,0,1,170.56,0l580.12,580.1a40.75,40.75,0,0,0,57.64,0ZM481.74,1327.34H324.82a120.73,120.73,0,0,1-120.6-120.6V623.55l98.33-98.33c.16-.16.26-.34.41-.51a40.58,40.58,0,0,0,12.53-29.32V202.71h72.29v1.83a40.79,40.79,0,0,0,81.58,0V161.92a40.78,40.78,0,0,0-40.79-40.79H274.7a40.78,40.78,0,0,0-40.79,40.79V478.49l-222,222a40.79,40.79,0,0,0,57.69,57.67l53-53v501.63c0,111.48,90.7,202.18,202.18,202.18H481.77a40.79,40.79,0,1,0,0-81.58Z"/></svg>