<svg id="Layer_1" data-name="Layer 1" xmlns="http://www.w3.org/2000/svg" viewBox="0 0 1470.03 1470.03"><defs><style>.cls-1{fill:#40b182;}</style></defs><title>Artboard 1</title><path class="cls-1" d="M1403.94,301.84A235.87,235.87,0,0,1,1470,465.51v539c0,59.68-18.78,127.65-86.58,138.49-48.66,7.77-84.43-18.2-116.85-50.11q-90.67-89.25-181.4-178.47-27.76-27.29-55.5-54.6c-10.32-10.14-20.92-19.58-22.74-34.94a41.24,41.24,0,0,1,27-43.35c29.65-10.42,49.69,16.79,68.26,35.05q30.89,30.4,61.79,60.81,67.4,66.27,134.77,132.56,20.43,20.11,40.88,40.25c7.68,7.56,29.94,20.78,39.23,8,10.06-13.88,9.49-37.35,9.49-53.65v-539A154.15,154.15,0,0,0,1369,390.59L957.41,801.26c-116.83,116.86-311.85,116.78-428.68,0L123.25,401.18c-34.14-33.7-41.57,45.37-41.57,64.34v539a154.14,154.14,0,0,0,18.95,74.22l302.46-297.3c37.52-37,94.81,21.35,57.25,58.24l-303,297.84a154,154,0,0,0,79.51,22.16h1029c52.67,0,52.67,81.67,0,81.67h-1029C106.26,1241.35,0,1135.1,0,1004.51v-539c0-45.6,9.8-102.88,47.24-133.61,40-32.83,97.93-23.83,133.38,11.12L586.3,743.28c85.46,85.44,227.9,85.72,313.42.2L1312,332.07a154.18,154.18,0,0,0-78.82-21.72H220.51c-52.66,0-52.66-81.67,0-81.67H1233.18a236.07,236.07,0,0,1,168.28,70.43,9.45,9.45,0,0,1,2.48,2.73C1444.76,344.42,1403.34,301.15,1403.94,301.84Z"/></svg>