<svg id="Layer_1" data-name="Layer 1" xmlns="http://www.w3.org/2000/svg" viewBox="0 0 1470.03 1470.03"><defs><style>.cls-1{fill:#40b182;}</style></defs><title>Artboard 1</title><path class="cls-1" d="M40.78,1447.86A40.78,40.78,0,0,1,0,1407.08c0-255.67,129.82-489,347.29-624a40.78,40.78,0,0,1,43,69.3C197,972.44,81.56,1179.81,81.56,1407.08A40.78,40.78,0,0,1,40.78,1447.86ZM1470,1408.78c0-320.24-203.26-599.65-506.83-698.24a40.83,40.83,0,0,0-43.59,1.21A331.21,331.21,0,0,1,734.1,768.15c-183.63,0-333-149.41-333-333S550.46,102,734.1,102s333,149.41,333,333.06a332.81,332.81,0,0,1-45.64,168.4,40.78,40.78,0,1,0,70.33,41.3,414.46,414.46,0,0,0,56.88-209.7c0-228.63-186-414.63-414.61-414.63s-414.63,186-414.63,414.63,186,414.61,414.61,414.61A412.55,412.55,0,0,0,946.82,791c264.91,90.13,441.62,336.16,441.62,617.72a40.79,40.79,0,0,0,81.58,0Z"/></svg>