<?xml version="1.0" encoding="utf-8"?>
<!-- Generator: Adobe Illustrator 22.0.0, SVG Export Plug-In . SVG Version: 6.00 Build 0)  -->
<svg version="1.1" id="Layer_1" xmlns="http://www.w3.org/2000/svg" xmlns:xlink="http://www.w3.org/1999/xlink" x="0px" y="0px"
	 viewBox="0 0 1470 1470" style="enable-background:new 0 0 1470 1470;" xml:space="preserve">
<style type="text/css">
	.st0{display:none;fill:#40B182;}
	.st1{display:none;}
	.st2{display:inline;fill:#40B182;}
	.st3{fill:#40B182;}
</style>
<path class="st0" d="M40.8,1447.9c-22.5,0-40.8-18.3-40.8-40.8c0-255.7,129.8-489,347.3-624c19.1-11.9,44.3-6,56.1,13.1
	c11.9,19.1,6,44.3-13.1,56.2C197,972.4,81.6,1179.8,81.6,1407.1C81.6,1429.6,63.3,1447.9,40.8,1447.9z M1470,1408.8
	c0-320.2-203.3-599.6-506.8-698.2c-13.5-8-30.4-7.6-43.6,1.2c-54.9,36.9-119.1,56.4-185.5,56.4c-183.6,0-333-149.4-333-333
	c0-183.7,149.4-333.1,333-333.1c183.7,0,333,149.4,333,333.1c0,59.3-15.8,117.6-45.6,168.4c-11.4,19.4-4.9,44.4,14.5,55.8
	c19.4,11.4,44.4,4.9,55.8-14.5c37.2-63.4,56.9-135.9,56.9-209.7c0-228.6-186-414.6-414.6-414.6s-414.6,186-414.6,414.6
	s186,414.6,414.6,414.6c75.5,0,148.5-20.2,212.7-58.7c264.9,90.1,441.6,336.2,441.6,617.7c0,22.5,18.3,40.8,40.8,40.8
	C1451.8,1449.5,1470,1431.3,1470,1408.8z"/>
<path class="st0" d="M1403.9,301.8c40.8,42.6,66.1,100.2,66.1,163.7v539c0,59.7-18.8,127.6-86.6,138.5
	c-48.7,7.8-84.4-18.2-116.8-50.1c-60.4-59.5-120.9-119-181.4-178.5c-18.5-18.2-37-36.4-55.5-54.6c-10.3-10.1-20.9-19.6-22.7-34.9
	c-2.2-18.7,9.2-37.1,27-43.3c29.6-10.4,49.7,16.8,68.3,35.1c20.6,20.3,41.2,40.5,61.8,60.8c44.9,44.2,89.8,88.4,134.8,132.6
	c13.6,13.4,27.3,26.8,40.9,40.2c7.7,7.6,29.9,20.8,39.2,8c10.1-13.9,9.5-37.4,9.5-53.7v-539c0-27.2-7.1-52.7-19.4-74.9L957.4,801.3
	c-116.8,116.9-311.9,116.8-428.7,0L123.2,401.2c-34.1-33.7-41.6,45.4-41.6,64.3v539c0,26.9,6.9,52.2,18.9,74.2l302.5-297.3
	c37.5-37,94.8,21.3,57.2,58.2l-303,297.8c23.3,14,50.4,22.2,79.5,22.2h1029c52.7,0,52.7,81.7,0,81.7h-1029
	C106.3,1241.3,0,1135.1,0,1004.5v-539c0-45.6,9.8-102.9,47.2-133.6c40-32.8,97.9-23.8,133.4,11.1l405.7,400.2
	c85.5,85.4,227.9,85.7,313.4,0.2L1312,332.1c-23.1-13.7-50-21.7-78.8-21.7H220.5c-52.7,0-52.7-81.7,0-81.7h1012.7
	c65.8,0,125.3,27,168.3,70.4C1402.5,299.8,1403.3,300.8,1403.9,301.8C1444.8,344.4,1403.3,301.2,1403.9,301.8z"/>
<path class="st0" d="M1145.2,1408.9H634.1c-58.6,0-108-52-108-113.7V910.8c0-22.5,18.3-40.8,40.8-40.8h336.2
	c22.5,0,40.8,18.3,40.8,40.8v347.4c0,22.5-18.3,40.8-40.8,40.8s-40.8-18.3-40.8-40.8V951.6H607.7v343.6c0,14.8,11.6,32.1,26.5,32.1
	h511.1c66.5,0,120.6-54.1,120.6-120.6V749.5c0-22.5,18.3-40.8,40.8-40.8c22.5,0,40.8,18.3,40.8,40.8v457.3
	C1347.4,1318.2,1256.7,1408.9,1145.2,1408.9z M1458.1,758.1c15.9-15.9,15.9-41.8,0-57.7L878,120.4c-38.2-38.2-89-59.2-143-59.2
	c-54,0-104.8,21-143.2,59.5L347.8,369c-15.8,16.1-15.5,41.9,0.5,57.7c16.1,15.8,41.9,15.5,57.7-0.5L649.7,178
	c22.8-22.8,53.1-35.3,85.3-35.3c32.2,0,62.5,12.6,85.3,35.3l580.1,580.1c8,8,18.4,11.9,28.8,11.9
	C1439.7,770.1,1450.1,766.1,1458.1,758.1z M481.7,1327.3H324.8c-66.5,0-120.6-54.1-120.6-120.6V623.5l98.3-98.3
	c0.2-0.2,0.3-0.3,0.4-0.5c7.7-7.4,12.5-17.8,12.5-29.3V202.7h72.3v1.8c0,22.5,18.3,40.8,40.8,40.8c22.5,0,40.8-18.3,40.8-40.8v-42.6
	c0-22.5-18.3-40.8-40.8-40.8H274.7c-22.5,0-40.8,18.3-40.8,40.8v316.6l-222,222C-4,716.4-4,742.2,12,758.1c8,8,18.4,11.9,28.8,11.9
	s20.9-4,28.8-11.9l53-53v501.6c0,111.5,90.7,202.2,202.2,202.2h156.9c22.5,0,40.8-18.3,40.8-40.8
	C522.6,1345.6,504.3,1327.3,481.7,1327.3z"/>
<path class="st0" d="M1470,235.6c0,62.9-24.5,122.1-69,166.6c-8,8-18.4,11.9-28.9,11.9s-20.9-4-28.9-11.9
	c-15.9-15.9-15.9-41.8,0-57.7c29.1-29.1,45.1-67.8,45.1-108.9c0-41.1-16-79.8-45.1-108.9c0,0,0,0,0,0
	c-29.1-29.1-67.7-45.1-108.8-45.1c-41.1,0-79.8,16-108.9,45.1L316.4,935.8c-8,8-18.4,11.9-28.9,11.9s-20.9-4-28.9-11.9
	c-15.9-15.9-15.9-41.8,0-57.7L1067.9,69c44.5-44.5,103.7-69,166.6-69c62.9,0,122,24.5,166.5,68.9c0,0,0,0,0.1,0.1
	C1445.5,113.5,1470,172.6,1470,235.6z M1323.6,462.7c0,10.8-4.3,21.2-11.9,28.9L496.2,1307c-4.3,4.3-9.5,7.6-15.2,9.6L54.4,1467.7
	c-4.4,1.6-9.1,2.4-13.6,2.4c-10.6,0-21.1-4.2-28.9-11.9c-11.1-11.1-14.9-27.7-9.6-42.5L153.5,989c4.7-13.2,15.8-23.1,29.5-26.2
	c13.7-3.1,28,1.1,37.9,11.1l108.3,109.2L1087.3,325l-28.5-28.5c-15.9-15.9-15.9-41.8,0-57.7c15.9-15.9,41.8-15.9,57.7,0l195.1,195.1
	C1319.3,441.5,1323.6,451.9,1323.6,462.7z M1225,462.7l-80-80l-758.4,758.4l19,19.2c15.9,16,15.8,41.8-0.3,57.7
	c-16,15.8-41.8,15.8-57.7-0.3l-47-47.5c-0.1-0.1-0.3-0.2-0.5-0.4c-0.2-0.2-0.3-0.3-0.4-0.5l-91-91.8l-100.8,284.6L445,1242.7
	L1225,462.7z"/>
<g class="st1">
	<path class="st2" d="M735,0C329.2,0,0,329.2,0,735s329.2,735,735,735s735-329.2,735-735S1140.8,0,735,0z M735,1366.8
		c-348.8,0-631.8-283-631.8-631.8s283-631.8,631.8-631.8s631.8,283,631.8,631.8S1083.8,1366.8,735,1366.8z"/>
	<path class="st2" d="M968.2,907.6l-215.3-162V391.5c0-28.5-23.1-51.6-51.6-51.6s-51.6,23.1-51.6,51.6v379.1c0,16,7.1,32,21.4,40.9
		l236.7,178c8.9,7.1,19.6,10.7,30.3,10.7c16,0,30.3-7.1,40.9-21.4C994.8,957.5,991.3,923.7,968.2,907.6z"/>
	<circle class="st2" cx="735" cy="195.8" r="37.4"/>
	<circle class="st2" cx="735" cy="1274.3" r="37.4"/>
	<circle class="st2" cx="1274.3" cy="735" r="37.4"/>
	<circle class="st2" cx="195.8" cy="735" r="37.4"/>
</g>
<g transform="translate(0,-952.36218)">
	<path class="st3" d="M294,1007.5c-19.4,0.6-36.3,20.2-36.8,36.8v404.3H36.8c-19.9,0.5-36.3,20.2-36.8,36.8v716.6
		c0,91,74.4,165.4,165.4,165.4h1139.3c91,0,165.4-74.4,165.4-165.4V1044.2c0-19.2-17.5-36.7-36.8-36.8H294z M330.8,1081h1065.8
		v1120.9c0,51.5-40.3,91.9-91.9,91.9h-1006c18.6-26.7,32.2-57,32.2-91.9V1081z M477.8,1191.2c-19.5,0.1-36.3,20.2-36.8,36.8v257.3
		c0,19.2,17.5,36.7,36.8,36.8h367.5c19.2,0,36.7-17.5,36.8-36.8V1228c0-19.2-17.5-36.7-36.8-36.8H477.8z M992.3,1228
		c-20.3,0-36.8,16.5-36.8,36.8s16.5,36.8,36.8,36.8h257.3c20.3,0,36.8-16.5,36.8-36.8s-16.5-36.8-36.8-36.8H992.3z M514.5,1264.7
		h294v183.8h-294V1264.7z M992.3,1411.7c-20.3,0-36.8,16.5-36.8,36.8s16.5,36.8,36.8,36.8h257.3c20.3,0,36.8-16.5,36.8-36.8
		s-16.5-36.8-36.8-36.8H992.3z M73.5,1522h183.8v679.9c0,51.5-40.3,91.9-91.9,91.9s-91.9-40.3-91.9-91.9V1522z M477.8,1632.2
		c-20.3,0-36.8,16.5-36.8,36.8c0,20.3,16.5,36.8,36.8,36.8h771.8c20.3,0,36.8-16.5,36.8-36.8s-16.5-36.8-36.8-36.8H477.8z
		 M477.8,1834.4c-20.3,0-36.8,16.5-36.8,36.8s16.5,36.8,36.8,36.8h771.8c20.3,0,36.8-16.5,36.8-36.8s-16.5-36.8-36.8-36.8H477.8z
		 M477.8,2036.5c-20.3,0-36.8,16.5-36.8,36.8s16.5,36.8,36.8,36.8h771.8c20.3,0,36.8-16.5,36.8-36.8s-16.5-36.8-36.8-36.8H477.8z"/>
</g>
</svg>
